<svg width="1595" height="1589" viewBox="0 0 1595 1589" fill="none" xmlns="http://www.w3.org/2000/svg">
<path fill-rule="evenodd" clip-rule="evenodd" d="M1042.9 936.644L1580.46 930.192C1516.07 1304.34 1190.03 1589 797.5 1589C411.556 1589 89.8852 1313.81 18.002 948.947L379.355 944.608V1280.73C379.355 1304.78 398.855 1324.28 422.91 1324.28H655.754C679.809 1324.28 699.308 1304.78 699.308 1280.73V965.676L945.188 1306.22C953.376 1317.56 966.512 1324.28 980.5 1324.28L1193.5 1324.28C1254.97 1324.28 1289.54 1253.58 1251.79 1205.07L1042.9 936.644ZM1069.26 615.706L1570.39 609.692C1487.09 260.03 1172.66 0 797.5 0C415.712 0 96.8211 269.293 20.4111 628.296L379.355 623.987V307.695C379.355 283.641 398.855 264.141 422.91 264.141H655.754C679.809 264.141 699.308 283.641 699.308 307.695V620.146L699.545 620.144L944.401 281.014C952.589 269.673 965.726 262.955 979.713 262.955L1192.72 262.955C1254.18 262.955 1288.75 333.657 1251 382.165L1069.26 615.706Z" fill="#FFCE0A"/>
<rect width="1592.17" height="77.8424" rx="38.9212" transform="matrix(0.999975 -0.00706722 -0.0295069 0.999565 2.29688 816.205)" fill="#FFCE0A"/>
<rect width="1585.07" height="77.8424" rx="38.9212" transform="matrix(0.999975 -0.00706722 -0.0295069 0.999565 5.98242 685.824)" fill="#FFCE0A"/>
</svg>
